# xmcd
#
# Track frame offsets: 
#        150
#        14649
#        27024
#        43656
#        55926
#        78557
#        94790
#        108870
#        123762
#        141697
#
# Disc length: 2104 seconds
#
# Revision: 0
# Processed by: cddbd v1.5.2PL0 Copyright (c) Steve Scherf et al.
# Submitted via: ExactAudioCopyFreeDBPlugin 1.0
#
DISCID=8208360a
DTITLE=The Lil Smokies - Changing Shades
DYEAR=2017
DGENRE=Bluegrass
TTITLE0=The City
TTITLE1=Might as Well
TTITLE2=Need a Minute
TTITLE3=Feathers
TTITLE4=Ms. Marie
TTITLE5=Winded
TTITLE6=Hitchcock
TTITLE7=Kings and Queens
TTITLE8=Where You Are Today
TTITLE9=The Gallery
EXTD=
EXTT0=
EXTT1=
EXTT2=
EXTT3=
EXTT4=
EXTT5=
EXTT6=
EXTT7=
EXTT8=
EXTT9=
PLAYORDER=
